<svg xmlns="http://www.w3.org/2000/svg" fill="none" viewBox="0 0 100 100">
    <!-- Background with subtle gradient -->
    <defs>
        <linearGradient id="gradient" x1="0%" y1="0%" x2="100%" y2="100%">
            <stop offset="0%" stop-color="#333333" />
            <stop offset="100%" stop-color="#555555" />
        </linearGradient>
    </defs>
    
    <!-- Main background -->
    <rect width="100" height="100" rx="20" fill="url(#gradient)" />
    
    <!-- JS Letters -->
    <path fill="#FFFFFF" d="M32 65V39h8v26c0 4-1 7-3 9s-5 3-9 3c-3 0-6-1-8-2l2-7c2 1 3 1.5 5 1.5s3-.5 4-1.5c1-1 1-2 1-3zM72 68c0 3-1 5-3 7s-5 3-9 3c-4 0-7-1-10-3l3-6c2 1.5 4 2.5 7 2.5 3 0 5-1.5 5-4 0-2-2-3-5-4-5-1-8-4-8-8 0-3 1-5 3-6.5s5-2.5 8-2.5c3 0 6 1 8 2l-2 6c-2-1-4-1.5-6-1.5s-3 1-3 3c0 2 2 3 5 4 5 2 8 4 8 9z"/>
    
    <style>
        @media (prefers-color-scheme: dark) {
            rect { fill: url(#gradient); }
        }
        @media (prefers-color-scheme: light) {
            rect { fill: url(#gradient); }
        }
    </style>
</svg>
